<svg xmlns="http://www.w3.org/2000/svg" viewBox="0 0 120 120">
  <style>
    .st0{fill:#F9F4AD;} .st1{fill:none;stroke:#3B2415;stroke-width:2;stroke-linecap:round;stroke-linejoin:round;stroke-miterlimit:10;} .st2{fill:none;stroke:#3B2415;stroke-linecap:round;stroke-linejoin:round;stroke-miterlimit:10;} .st3{fill:none;stroke:#3B2415;stroke-width:3;stroke-linecap:round;stroke-linejoin:round;stroke-miterlimit:10;} .st4{fill:#3B2415;} .st5{fill:none;stroke:#3B2415;stroke-linecap:round;stroke-miterlimit:10;} .st6{fill:none;stroke:#3B2415;stroke-width:2;stroke-miterlimit:10;} .st7{fill:none;stroke:#3B2415;stroke-miterlimit:10;}
  </style>
  <g id="Layer_2">
    <path d="M61.5 94.6h-2.2c-1.5 0-2.8-1.3-2.8-2.8l.4-24.2c0-1.2 1.9-2.2 1.9-2.2h3.1s1.7 1 1.7 2.6l.4 24.5c0 1-1.1 2.1-2.5 2.1z" class="st6"/>
    <path d="M60.3 88.1v6.5" class="st7"/>
    <path d="M60.3 65.3v-8.9s.4-3.3 3.7-3.3h21.7s3.5-.1 3.5-3.7v-10s.4-3.4-5.3-3.4" class="st6"/>
    <path d="M80.3 44.2H40.8c-2.2 0-4-1.9-4-4.2v-7.9c0-2.3 1.8-4.2 3.4-4.2h39.5c2.8 0 4.5 1.9 4.5 4.2V40c.1 2.3-1.7 4.2-3.9 4.2z" class="st1"/>
    <path d="M40 27.4v8.2" class="st5"/>
    <path d="M43 28.2v8.2m2.9-8.2v8.2m2.9-8.2v7.2m3-7.2v7.4m2.9-7.4v8.2m2.9-8.2v8.2m2.9-8.2V37m3-8.8v7.4m2.9-7.4v8.2m2.9-8.2v9.2m2.9-9.2v8.2m3-8.2v7.2m2.9-7.2V37m2.9-8.8v7.2" class="st2"/>
  </g>
</svg>
