<svg xmlns="http://www.w3.org/2000/svg" viewBox="0 0 120 96.5">
  <style>
    .st0{fill:#F9F4AD;} .st1{fill:none;stroke:#3B2415;stroke-width:2;stroke-linecap:round;stroke-linejoin:round;stroke-miterlimit:10;} .st2{fill:none;stroke:#3B2415;stroke-linecap:round;stroke-linejoin:round;stroke-miterlimit:10;} .st3{fill:none;stroke:#3B2415;stroke-width:3;stroke-linecap:round;stroke-linejoin:round;stroke-miterlimit:10;} .st4{fill:#3B2415;} .st5{fill:none;stroke:#3B2415;stroke-linecap:round;stroke-miterlimit:10;} .st6{fill:none;stroke:#3B2415;stroke-width:2;stroke-miterlimit:10;} .st7{fill:none;stroke:#3B2415;stroke-miterlimit:10;}
  </style>
  <g id="Layer_2">
    <path d="M68.5 55.6c2.7-.8 5.1-1.2 5.1-1.2M46.1 79.2c-.6 2.1-1.1 5.7 3 6.7l1.2.3c5.8 1.4 5.9-6.3 5.9-6.3s0-.3.1-.7M42.8 46.9s6.3 4.7 8.4 8.6" class="st1"/>
    <path d="M52.47 7.335l30.796 7.506-9.66 39.64-30.798-7.506z" class="st1"/>
    <path d="M46.536 31.47l30.797 7.506-3.742 15.35-30.793-7.507zM45.5 37.1l9.7 2.3m4.2 1l5.4 1.4m3.1.7l2.6.6M56.7 8.7L54.2 19m6.2-9.4l-2.2 9m6-8.1l-2.8 11.3m6.5-10.3l-2.3 9.7m6.1-8.8l-2.7 11m6.4-10.1l-2.1 9m5.9-8.1l-2.6 10.6" class="st1"/>
    <path d="M51.4 78.4l-1.6 6.7" class="st2"/>
    <path d="M118 71.1c-4.5-2.3-14.5-4.5-14.5-4.5V63c1.5-4.6 2.4-9.5 2.4-14.6 0-25.4-20.5-46-45.9-46S14.1 23 14.1 48.3c0 5.1.8 10 2.4 14.6v3.6S6.6 68.8 2 71l7.1 9.5L2 94s6.8-3.7 23-6.4v-6.8s.8-.1 2.2-.3c8.3 8.5 20 13.8 32.8 13.8S84.5 89 92.8 80.5c1.4.2 2.2.3 2.2.3v6.8c16.2 2.7 23 6.4 23 6.4l-7.1-13.3 7.1-9.6z" class="st3"/>
    <path d="M118 71.4c-4.5-2.3-14.5-4.5-14.5-4.5v-6.2c-19-5-43.5-5.1-43.5-5.1s-24.5.1-43.5 5.1v6.2S6.6 69.2 2 71.4l7.1 9.5L2 94.3s6.8-3.7 23-6.4v-6.8s20.1-3 35-2.8c14.9-.1 35 2.8 35 2.8v6.8c16.2 2.7 23 6.4 23 6.4L110.9 81l7.1-9.6z" class="st3"/>
    <path d="M28.9 75.1c-.8-5.4-1.2-8.2-1.9-13.6 1.6-.2 2.3-.3 3.9-.5 1.6 4 2.4 6.1 4 10.1.6-4.3.9-6.4 1.6-10.7 1.6-.2 2.3-.2 3.9-.4.5 5.5.7 8.2 1.2 13.7-1.1.1-1.6.1-2.7.2-.4-4.3-.6-6.5-1-10.8-.7 4.4-1 6.6-1.6 11-.8.1-1.2.1-2 .2-1.6-4.2-2.4-6.3-4-10.4.6 4.3.8 6.4 1.4 10.7-1.3.3-1.8.4-2.8.5zm21.9-2.7c-.6.6-1.6 1-3 1.1-1.4.1-2.5-.2-3.1-.7-.7-.6-1-1.4-1.1-2.6-.1-1.2-.1-1.8-.2-2.9-.1-1.2.2-2.1.8-2.7.6-.7 1.6-1 3.1-1.1 1.5-.1 2.6.2 3.2.8.7.6 1 1.5 1.1 2.6 0 1.2.1 1.8.1 2.9-.1 1-.3 1.9-.9 2.6zm-3.7-.6h.5c.2 0 .4 0 .5-.1.1 0 .3-.1.3-.2.1-.1.2-.2.2-.3.1-.1.1-.2.1-.3 0-.1 0-.2.1-.4v-.8c-.1-1.2-.1-1.8-.1-2.9V66c0-.2-.1-.3-.1-.4 0-.1-.1-.2-.2-.3-.1-.1-.2-.2-.3-.2-.1-.1-.2-.1-.4-.1h-.5c-.2 0-.4 0-.5.1-.1 0-.3.1-.4.2-.1.1-.2.2-.2.3-.1.1-.1.2-.1.3 0 .1 0 .2-.1.4v.8c.1 1.2.1 1.8.2 2.9v.4c0 .1 0 .2.1.4 0 .2.1.3.1.4 0 .1.1.2.2.3.1.1.2.2.3.2.1 0 .2.1.3.1zm6.6 3.7c-.6 0-1 0-1.3-.1V74h.7c.9 0 1.3-.4 1.3-1.2-.1-3.9-.1-5.8-.2-9.6 1.1 0 1.7 0 2.8-.1.1 3.9.1 5.9.1 9.9 0 .8-.3 1.3-.9 1.8-.7.4-1.5.7-2.5.7zm.3-13.7c0-.8 0-1.2-.1-2 1.1 0 1.7 0 2.8-.1v2c-1.1 0-1.6 0-2.7.1zm8.7 11.3c-1.1 0-2-.3-2.6-.7-.7-.5-1.1-1.1-1.4-1.9l2-.5c.5 1 1.1 1.5 2 1.5.4 0 .8-.1 1-.2.2-.2.4-.4.4-.7 0-.5-.2-.8-.7-1.1-1.1-.6-1.6-.9-2.7-1.5-.3-.1-.6-.3-.8-.4-.2-.1-.4-.3-.6-.5-.2-.2-.4-.4-.5-.6-.1-.2-.2-.5-.2-.8 0-.8.4-1.5 1.1-1.9.8-.4 1.8-.7 3-.6.6 0 1.1.1 1.6.2s.9.3 1.2.6c.3.3.6.5.8.8.2.3.4.6.5 1-.8.2-1.2.3-2.1.4-.1-.2-.2-.4-.3-.5-.1-.1-.2-.3-.4-.5s-.4-.3-.6-.4c-.2-.1-.5-.1-.8-.1-.4 0-.8.1-1 .2-.2.2-.4.4-.4.7 0 .3.2.6.7.8 1.1.6 1.6.9 2.7 1.5.3.2.6.4.8.5l.6.6c.2.2.3.5.4.7.1.3.1.5.1.8 0 .8-.4 1.5-1.1 1.9-.5.5-1.5.7-2.7.7zm9.3.3c-1-.1-1.8-.3-2.3-.7-.5-.4-.7-1-.7-1.8.1-2.4.1-3.7.2-6.1-.6 0-.8 0-1.4-.1 0-.6 0-.9.1-1.5.6 0 .8 0 1.4.1.1-1.4.1-2.1.1-3.4 1.1 0 1.7.1 2.8.1-.1 1.4-.1 2.1-.2 3.4.8 0 1.3.1 2.1.1 0 .6-.1.9-.1 1.5-.8-.1-1.2-.1-2.1-.1-.1 2.3-.2 3.4-.3 5.7 0 .4 0 .7.2.9.1.2.4.3.9.3h.9c0 .6-.1 1-.1 1.6H72zm7.3.5c-.6-.1-1.2-.2-1.7-.4s-.8-.4-1.1-.7c-.3-.3-.5-.6-.6-1.1-.1-.4-.2-.8-.3-1.3V69c0-.4 0-.9.1-1.3.1-.5.1-1 .2-1.3.1-.4.3-.8.5-1.1.2-.4.5-.6.8-.9.3-.2.7-.4 1.2-.5.5-.1 1.1-.1 1.7-.1.6.1 1.1.2 1.6.3.4.2.8.4 1.1.6.3.3.5.5.7.8.2.3.3.6.3 1 .1.4.1.8.1 1.2 0 .4 0 .8-.1 1.3v.2c-2.2-.2-3.3-.3-5.4-.5v.8c0 .2 0 .4-.1.6v.6c0 .2 0 .4.1.6 0 .2.1.3.2.5.1.1.2.3.4.3.2.1.3.1.6.2.3 0 .5 0 .7-.1.2-.1.3-.2.4-.3.1-.1.2-.3.2-.5s.1-.4.1-.6v-.4c1.1.1 1.6.2 2.7.3v.4c-.2 1-.6 1.8-1.3 2.3-.8.5-1.8.6-3.1.5zm-.9-6.1c1.1.1 1.6.1 2.7.2 0-.2 0-.4.1-.6v-.7c0-.2-.1-.4-.1-.6-.1-.2-.2-.4-.4-.5-.2-.1-.4-.2-.7-.2-.3 0-.5 0-.7.1-.2.1-.4.2-.5.4-.1.2-.2.4-.2.6-.1.2-.1.4-.1.7 0 .3 0 .4-.1.6zm6.8 6.6c.4-3.9.7-5.8 1.1-9.7 1.1.1 1.7.2 2.8.3-.1.5-.1.8-.2 1.3.3-.3.8-.6 1.4-.8.6-.2 1.2-.3 1.8-.2 0 0 .2 0 .4.1-.1.9-.2 1.3-.3 2.1-.5-.2-1-.4-1.5-.4-.6-.1-1 0-1.4.2-.4.2-.6.5-.6.9-.3 2.6-.5 3.9-.8 6.6-1.1-.2-1.7-.3-2.7-.4z" class="st4"/>
  </g>
</svg>
