<svg xmlns="http://www.w3.org/2000/svg" viewBox="0 0 120 120">
  <style>
    .st0{fill:#FFFFFF;} .st1{fill:#F9F4AD;} .st2{fill:none;stroke:#3B2415;stroke-width:2;stroke-linecap:round;stroke-linejoin:round;stroke-miterlimit:10;} .st3{fill:none;stroke:#3B2415;stroke-linecap:round;stroke-linejoin:round;stroke-miterlimit:10;} .st4{fill:none;stroke:#3B2415;stroke-width:3;stroke-linecap:round;stroke-linejoin:round;stroke-miterlimit:10;} .st5{fill:#3B2415;} .st6{fill:none;stroke:#3B2415;stroke-linecap:round;stroke-miterlimit:10;} .st7{fill:none;stroke:#3B2415;stroke-width:2;stroke-miterlimit:10;} .st8{fill:none;stroke:#3B2415;stroke-miterlimit:10;}
  </style>
  <g id="Layer_2">
    <path d="M93.9 25.7c-.4-.5-1.2-.5-1.6 0L87.9 30 61 29.8l-34 34c-1.6 1.6-1.6 4.2 0 5.8l23.6 23.8c.8.8 1.8 1.2 2.9 1.2 1.1 0 2.1-.4 2.9-1.2l33.2-33.7.1-28.1 4.3-4.3c.3-.4.3-1.2-.1-1.6zm-6.8 33l-32.5 33c-.7.7-1.8.7-2.5 0L28.6 68c-.7-.7-.7-1.8 0-2.5L62 32.2l23.7.1-5.7 5.5c-.9-.6-2-1-3.2-1-3.2 0-5.8 2.6-5.8 5.8 0 3.2 2.6 5.8 5.8 5.8 3.2 0 5.8-2.6 5.8-5.8 0-1.2-.3-2.3-.9-3.2l5.6-5.6-.2 24.9zm-6.8-16.1c0 1.9-1.6 3.5-3.5 3.5s-3.5-1.6-3.5-3.5 1.6-3.5 3.5-3.5c.5 0 1 .1 1.5.4L76 41.8c-.5.4-.5 1.2 0 1.6.2.2.5.3.8.4.3 0 .6-.1.8-.3l2.3-2.3c.2.4.4.9.4 1.4z" class="st5"/>
    <path d="M64.5 70.9L52.2 83.1c-.5.4-.5 1.2 0 1.6.2.2.5.3.8.3.3 0 .6-.1.8-.3l12.3-12.2c.5-.4.5-1.2 0-1.6-.4-.5-1.1-.4-1.6 0zM68.7 66.8c-.2.2-.3.5-.3.8 0 .3.1.6.3.8.2.2.5.3.8.3.3 0 .6-.1.8-.3.2-.2.3-.5.3-.8 0-.3-.1-.6-.3-.8-.4-.4-1.2-.4-1.6 0zM58.9 57c.5-.4.5-1.2 0-1.6-.4-.5-1.2-.5-1.6 0L44.9 67.5c-.5.4-.5 1.2 0 1.6.2.2.5.3.8.3.3 0 .6-.1.8-.3L58.9 57zM54.7 70.9c.2.2.5.3.8.3.3 0 .6-.1.8-.3l8.2-8.1c.5-.4.5-1.2 0-1.6s-1.2-.5-1.6 0l-8.2 8.1c-.4.4-.4 1.1 0 1.6zM48.2 75.7l-1.6 1.6c-.5.4-.5 1.2 0 1.6.2.2.5.3.8.3.3 0 .6-.1.8-.3l1.6-1.6c.5-.4.5-1.2 0-1.6-.5-.4-1.2-.4-1.6 0zM49.1 53.6c-.4-.5-1.2-.5-1.6 0L35.1 65.9c-.5.4-.5 1.2 0 1.6.2.2.5.3.8.3.3 0 .6-.1.8-.3L49 55.3c.5-.5.5-1.2.1-1.7zM52.4 51.5c.3 0 .6-.1.8-.3.2-.2.3-.5.3-.8 0-.3-.1-.6-.3-.8-.4-.4-1.2-.4-1.6 0-.2.2-.3.5-.4.8 0 .3.1.6.3.8.3.2.6.3.9.3zM41.6 70.8c-.2.2-.3.5-.3.8 0 .3.1.6.3.8.2.2.5.3.8.4.3 0 .6-.1.8-.3.2-.2.3-.5.3-.8 0-.3-.1-.6-.3-.8-.4-.5-1.1-.5-1.6-.1zM53.1 74.1c.2-.2.3-.5.3-.8 0-.3-.1-.6-.3-.8-.4-.4-1.2-.4-1.6 0-.2.2-.3.5-.3.8 0 .3.1.6.3.8.2.2.5.3.8.3.3.1.6-.1.8-.3z" class="st5"/>
  </g>
</svg>
