<svg xmlns="http://www.w3.org/2000/svg" viewBox="0 0 96.7 96.7"><style>.st0{fill:#F9F4AD;} .st1{fill:none;stroke:#3B2415;stroke-width:2;stroke-linecap:round;stroke-linejoin:round;stroke-miterlimit:10;} .st2{fill:none;stroke:#3B2415;stroke-linecap:round;stroke-linejoin:round;stroke-miterlimit:10;} .st3{fill:none;stroke:#3B2415;stroke-width:3;stroke-linecap:round;stroke-linejoin:round;stroke-miterlimit:10;} .st4{fill:#3B2415;} .st5{fill:none;stroke:#3B2415;stroke-linecap:round;stroke-miterlimit:10;} .st6{fill:none;stroke:#3B2415;stroke-width:2;stroke-miterlimit:10;} .st7{fill:none;stroke:#3B2415;stroke-miterlimit:10;}</style><g id="Layer_2"><path class="st1" d="M32.4 49.7s7.8 5.9 9 10-5.1 20.7-5.1 20.7-3.5 6.9 2.4 8.3l1.2.3c5.8 1.4 5.9-6.3 5.9-6.3S48 65.2 50.9 62c2.9-3.1 12.3-4.8 12.3-4.8"/><path class="st1" d="M42.07 10.124l30.797 7.506-9.662 39.638L32.41 49.76z"/><path class="st1" d="M36.234 34.282L67.03 41.79l-3.74 15.348-30.798-7.506zM35.2 39.9l9.7 2.3M49 43.2l5.5 1.4M57.6 45.3l2.5.6M46.3 11.5l-2.5 10.3M50.1 12.4l-2.2 9M53.8 13.3l-2.7 11.3M57.6 14.2L55.2 24M61.3 15.2l-2.7 11M65.1 16.1l-2.2 9M68.8 17l-2.5 10.6"/><path class="st2" d="M41.4 80l-2 7.9"/><circle class="st3" cx="48.3" cy="48.3" r="45.9"/></g></svg>