<svg xmlns="http://www.w3.org/2000/svg" viewBox="0 0 120 120">
  <style>
    .st0{fill:#F9F4AD;} .st1{fill:none;stroke:#3B2415;stroke-width:2;stroke-linecap:round;stroke-linejoin:round;stroke-miterlimit:10;} .st2{fill:none;stroke:#3B2415;stroke-linecap:round;stroke-linejoin:round;stroke-miterlimit:10;} .st3{fill:none;stroke:#3B2415;stroke-width:3;stroke-linecap:round;stroke-linejoin:round;stroke-miterlimit:10;} .st4{fill:#3B2415;} .st5{fill:none;stroke:#3B2415;stroke-linecap:round;stroke-miterlimit:10;} .st6{fill:none;stroke:#3B2415;stroke-width:2;stroke-miterlimit:10;} .st7{fill:none;stroke:#3B2415;stroke-miterlimit:10;}
  </style>
  <g id="Layer_2">
    <path d="M44.1 61.4s7.8 5.9 9 10c1.1 4.1-5.1 20.7-5.1 20.7s-3.5 6.9 2.4 8.3l1.2.3c5.8 1.4 5.9-6.3 5.9-6.3s2.1-17.6 5.1-20.7c2.9-3.1 12.3-4.8 12.3-4.8M53.782 21.733L84.58 29.24l-9.663 39.636L44.12 61.37z" class="st1"/>
    <path d="M47.825 45.964l30.797 7.507-3.742 15.35-30.796-7.504zM46.8 51.5l9.7 2.4m4.2 1l5.4 1.3m3.1.8l2.6.6M58 23.2l-2.5 10.2m6.2-9.3l-2.2 9m6-8.1l-2.8 11.3m6.5-10.4l-2.3 9.8m6.1-8.9l-2.7 11.1m6.5-10.2l-2.2 9m5.9-8l-2.6 10.6" class="st1"/>
    <path d="M53 91.7l-1.9 7.8" class="st2"/>
  </g>
</svg>
