<svg xmlns="http://www.w3.org/2000/svg" viewBox="0 0 120 120">
  <style>
    .st0{fill:#F9F4AD;} .st1{fill:none;stroke:#3B2415;stroke-width:2;stroke-linecap:round;stroke-linejoin:round;stroke-miterlimit:10;} .st2{fill:none;stroke:#3B2415;stroke-linecap:round;stroke-linejoin:round;stroke-miterlimit:10;} .st3{fill:none;stroke:#3B2415;stroke-width:3;stroke-linecap:round;stroke-linejoin:round;stroke-miterlimit:10;} .st4{fill:#3B2415;} .st5{fill:none;stroke:#3B2415;stroke-linecap:round;stroke-miterlimit:10;} .st6{fill:none;stroke:#3B2415;stroke-width:2;stroke-miterlimit:10;} .st7{fill:none;stroke:#3B2415;stroke-miterlimit:10;}
  </style>
  <g id="Layer_2">
    <path d="M71.6 97.2l-3.4.9c-1.8.5-4.8-.6-5.4-2.7l-8.6-33.7c-.5-1.7-.6-3.2-.6-3.2l9.7-2.7s.7 1.2 1.3 3.5l10 34c.4 1.3-1.6 3.5-3 3.9z" class="st1"/>
    <path d="M67.3 88.7l2.4 9" class="st5"/>
    <path d="M64 21.8l-28.2 7.7c-.4.1-.6.6-.4 1l18 27.6c.2.2.5.4.7.3l8.7-2.4c.3-.1.5-.3.5-.6L65 22.7c.1-.5-.5-1-1-.9z" class="st1"/>
    <path d="M51.7 54.4l4-1.1m8.1-10L57.6 45m6.4-9.2l-3.3.9" class="st2"/>
    <path d="M40.2 28.3c-.3.1-.7.3-.9.6-.2.4-2 .9-2.8 1.2-.2.1-.2.3-.1.4l1.5 2.3c.3.4.7.8 1.1.9l.4.2c1.4 1.2 2-.4 2-.4.2-.2.6.2.9.1.2-.1.4.1.4.3l1.9 6.8c.1.3.4.5.8.4.3-.1.5-.4.4-.7l-2-7.2c0-.4-.4-1.2 1-.9 2.4.6 1-1.8 1.3-1.4l1.6 6c.1.3.4.5.8.4.3-.1.5-.4.4-.7l-1.8-6.5c-.3-.4.4-.5 1.2-.7.7-.3 2.1-1.7 2.8-2.5.3-.3.4-.7.4-1.1 0-.3-.3-.4-.5-.4l-10.8 2.9z" class="st4"/>
  </g>
</svg>
