<?xml version="1.0" standalone="no"?>
<!DOCTYPE svg PUBLIC "-//W3C//DTD SVG 20010904//EN"
 "http://www.w3.org/TR/2001/REC-SVG-20010904/DTD/svg10.dtd">
<svg version="1.0" xmlns="http://www.w3.org/2000/svg"
 width="700.000000pt" height="700.000000pt" viewBox="0 0 700.000000 700.000000"
 preserveAspectRatio="xMidYMid meet">
<metadata>
Created by potrace 1.11, written by Peter Selinger 2001-2013
</metadata>
<g transform="translate(0.000000,700.000000) scale(0.100000,-0.100000)"
fill="#000000" stroke="none">
<path d="M3205 6751 c-60 -21 -141 -50 -179 -65 l-68 -26 -91 31 c-80 28 -100
31 -163 26 -40 -4 -99 -15 -131 -26 -32 -11 -87 -27 -123 -36 -36 -9 -93 -27
-126 -40 -37 -14 -73 -22 -90 -19 -15 3 -67 29 -114 57 l-85 52 -130 0 c-112
0 -138 -3 -192 -24 -81 -30 -106 -57 -128 -133 -20 -74 -21 -131 -3 -161 8
-12 22 -44 32 -70 20 -52 42 -67 100 -67 21 0 40 -8 54 -22 68 -73 23 -148
-200 -335 -100 -84 -145 -146 -153 -212 -3 -25 -8 -55 -10 -66 -4 -18 -75
-101 -224 -260 -31 -33 -87 -99 -124 -147 -37 -48 -89 -106 -115 -130 -175
-159 -213 -222 -262 -430 -37 -160 -83 -276 -198 -499 -107 -209 -128 -283
-119 -416 8 -116 33 -165 111 -218 68 -46 249 -244 285 -311 27 -52 40 -141
29 -196 -4 -21 -23 -70 -42 -110 -52 -111 -53 -117 -72 -378 -17 -240 -2 -425
50 -603 13 -46 27 -127 31 -182 8 -114 11 -150 20 -255 6 -68 10 -99 31 -235
3 -22 13 -69 21 -105 21 -91 23 -157 7 -196 -35 -83 -107 -183 -174 -243 -75
-67 -96 -98 -115 -171 -16 -61 -10 -118 23 -202 30 -78 69 -128 100 -128 11 0
44 25 75 55 63 62 93 77 157 76 133 -3 165 -12 185 -51 31 -60 88 -46 189 44
21 19 47 37 58 39 10 3 43 -8 73 -24 67 -36 87 -36 149 -3 59 31 105 33 144 5
52 -37 75 -41 118 -21 46 20 78 53 94 95 19 48 22 407 4 474 -18 67 -19 82
-10 151 4 30 10 71 12 90 18 150 41 274 69 375 14 50 34 135 45 190 26 136 61
232 103 278 31 35 36 36 65 26 46 -16 79 -93 92 -216 11 -100 31 -149 103
-243 45 -59 86 -145 80 -170 -6 -32 -16 -209 -16 -297 0 -105 2 -114 29 -160
47 -78 50 -92 46 -189 -3 -65 1 -101 11 -127 16 -36 80 -92 192 -168 72 -49
108 -49 184 0 55 36 85 38 161 11 76 -27 136 -25 270 9 97 25 128 29 195 24
111 -8 203 -8 210 -1 3 3 -11 41 -32 84 -37 78 -37 80 -41 224 -4 168 -9 182
-87 212 -89 34 -97 52 -81 178 12 104 32 180 66 255 59 131 56 121 74 211 8
39 27 122 41 183 14 62 35 167 46 234 20 119 37 181 65 242 65 144 84 244 89
465 3 96 8 195 12 220 3 25 7 101 8 170 1 69 5 136 8 150 23 93 24 161 2 316
-7 53 14 69 82 65 187 -13 311 -1 395 39 59 28 62 13 17 -89 -56 -131 -54
-178 6 -182 78 -5 145 48 260 206 32 44 61 82 64 85 11 8 146 192 177 239 19
29 59 65 114 103 47 31 93 63 104 70 87 60 181 136 215 174 22 25 54 80 72
122 53 128 84 158 177 169 87 10 116 38 114 107 -2 56 -22 86 -81 116 -31 15
-67 40 -80 54 l-24 26 24 52 c33 70 71 122 164 223 44 48 108 127 142 177 51
75 114 138 137 138 3 0 42 17 88 39 100 46 166 104 285 250 48 58 90 108 93
111 17 14 107 150 123 185 27 59 44 140 46 225 6 159 7 296 3 308 -8 23 -29
12 -86 -47 -115 -120 -165 -156 -371 -266 -60 -32 -126 -68 -146 -81 -19 -12
-73 -41 -120 -64 -167 -85 -199 -121 -249 -290 -34 -111 -57 -151 -187 -320
-65 -85 -167 -219 -227 -298 -127 -168 -134 -173 -266 -187 -65 -7 -82 -10
-130 -20 -14 -3 -34 -7 -45 -9 -62 -12 -152 -44 -243 -87 -112 -53 -183 -70
-252 -62 -99 12 -211 75 -301 170 -61 65 -71 79 -167 213 -42 58 -93 115 -132
146 -77 62 -106 110 -115 187 -8 75 -11 82 -56 143 -20 28 -34 55 -31 60 4 6
29 18 56 29 27 10 65 32 84 50 30 27 34 35 26 58 -5 15 -35 55 -68 89 -53 57
-62 73 -95 173 -48 144 -49 170 -10 290 50 158 37 212 -63 255 -83 36 -119 35
-243 -9z m-1219 -96 c42 -17 99 -61 168 -128 43 -42 47 -50 34 -63 -9 -9 -42
-16 -88 -19 -88 -5 -123 -26 -128 -74 -3 -24 4 -38 26 -61 27 -27 34 -29 78
-23 68 7 100 23 163 78 60 51 87 65 130 65 28 0 28 0 27 64 -1 76 11 94 84
125 47 20 53 21 121 7 81 -18 161 -53 203 -90 16 -14 30 -26 31 -26 1 0 16 5
33 11 26 9 35 21 53 69 l21 59 57 -38 c75 -51 145 -86 213 -106 68 -19 104
-46 122 -89 17 -42 13 -81 -18 -153 -17 -42 -23 -70 -20 -107 2 -28 6 -105 8
-170 l5 -119 55 -52 c31 -28 56 -59 56 -68 0 -21 -54 -72 -102 -96 -47 -23
-106 -15 -220 30 -78 31 -108 59 -108 98 0 11 -12 32 -27 46 l-28 26 -23 -28
c-29 -34 -110 -199 -114 -232 -5 -39 18 -36 64 8 70 67 86 67 291 -11 72 -28
80 -34 100 -74 20 -42 20 -44 2 -64 -10 -11 -27 -20 -38 -20 -29 0 -124 28
-205 61 -41 17 -76 29 -78 27 -2 -2 14 -26 34 -53 28 -37 59 -60 127 -97 91
-49 130 -88 138 -138 5 -31 -6 -53 -52 -103 -45 -48 -63 -81 -55 -102 4 -8 40
-38 81 -66 106 -71 140 -62 158 41 3 19 12 60 20 90 8 30 19 89 26 130 6 40
18 85 27 98 30 46 133 69 165 37 8 -8 31 -43 50 -77 44 -79 69 -101 134 -122
32 -11 66 -32 88 -54 40 -41 196 -285 258 -402 22 -41 47 -86 57 -100 9 -14
21 -52 25 -85 5 -33 9 -67 10 -75 1 -8 5 -36 9 -62 8 -64 25 -97 57 -113 36
-19 69 -11 97 22 43 53 50 114 29 228 -15 76 -14 98 3 130 10 19 110 95 125
95 4 0 20 9 36 21 l29 21 30 -32 c35 -37 37 -65 11 -124 -17 -35 -19 -60 -17
-142 4 -99 -2 -127 -45 -231 -12 -29 -11 -40 11 -103 31 -88 24 -109 -55 -172
-116 -94 -204 -118 -303 -84 -44 16 -304 169 -320 189 -17 21 -60 140 -76 207
-10 43 -14 104 -12 182 3 145 -7 178 -74 241 -28 26 -54 47 -58 48 -4 0 -15 2
-25 4 -22 4 -44 -28 -52 -75 -3 -19 -7 -35 -8 -36 -10 -7 -57 -13 -58 -7 -5
59 -24 93 -51 93 -31 0 -150 -100 -204 -172 -90 -120 -131 -152 -211 -164 -71
-11 -120 -23 -165 -43 -57 -24 -76 -66 -58 -130 16 -59 53 -76 142 -62 60 10
103 0 130 -29 22 -23 30 -24 79 -6 42 15 159 102 160 119 0 7 2 19 4 27 1 8 6
47 10 85 3 39 13 85 22 102 16 34 94 93 123 93 31 0 52 -25 56 -67 2 -22 13
-78 24 -124 25 -104 25 -146 2 -230 -10 -36 -17 -82 -16 -102 5 -53 44 -124
108 -192 52 -55 73 -96 69 -135 -4 -49 -15 -136 -18 -140 -2 -3 -7 -33 -10
-65 -4 -33 -9 -73 -12 -90 -3 -16 -7 -151 -9 -300 l-3 -270 -39 -140 c-28
-102 -38 -157 -37 -203 1 -35 -4 -89 -11 -119 -7 -31 -12 -90 -10 -131 l3 -74
-44 -51 c-55 -65 -93 -145 -100 -211 -3 -28 -6 -52 -7 -53 -1 -1 -20 -5 -42
-8 -111 -16 -115 -17 -124 -38 -6 -18 -3 -24 19 -34 26 -11 100 -11 138 1 18
6 21 2 21 -40 1 -49 -4 -61 -78 -194 -45 -80 -48 -91 -54 -175 -6 -103 -7
-106 -46 -275 -25 -107 -27 -127 -16 -145 9 -13 54 -33 135 -59 122 -39 183
-76 177 -107 -11 -60 -21 -81 -49 -101 -30 -21 -39 -22 -192 -20 l-161 3 -35
-30 c-55 -49 -84 -49 -187 -2 -100 46 -108 47 -160 25 -59 -25 -106 -27 -144
-9 -108 55 -86 154 47 209 33 13 87 39 121 58 281 155 314 174 314 189 0 19
-104 69 -160 76 -24 3 -70 -4 -131 -22 -110 -33 -164 -35 -207 -9 -44 25 -64
74 -68 163 -5 117 -11 138 -68 251 -64 126 -86 194 -86 270 0 56 -11 80 -58
129 -39 40 -55 104 -59 241 -7 233 -12 241 -117 185 -37 -19 -72 -35 -80 -35
-7 0 -29 -16 -48 -35 -34 -32 -63 -105 -105 -260 -9 -33 -38 -68 -86 -104
-125 -93 -171 -245 -116 -386 36 -93 32 -147 -16 -225 -70 -115 -184 -216
-288 -255 -167 -63 -212 -162 -130 -291 l14 -22 60 19 c34 11 84 19 112 19 84
0 303 -53 292 -70 -3 -5 -1 -11 4 -14 16 -10 -6 -69 -34 -93 -32 -28 -43 -28
-99 -1 -42 20 -46 20 -70 4 -14 -9 -37 -38 -50 -64 -29 -57 -53 -80 -103 -97
-46 -16 -56 -10 -79 53 -23 61 -32 72 -59 72 -19 0 -28 -12 -50 -67 -35 -85
-53 -102 -102 -97 -56 5 -84 31 -129 123 l-42 83 -62 -78 c-89 -114 -108 -133
-143 -142 -51 -14 -85 3 -97 49 -10 36 -8 42 32 101 55 81 43 66 144 192 120
151 128 172 129 326 0 110 -5 196 -21 346 -5 53 -26 113 -65 183 -16 31 -33
76 -36 101 -4 40 -1 51 36 106 27 41 41 73 41 94 0 21 -23 77 -65 155 -77 145
-85 183 -56 250 26 59 26 71 0 130 -17 37 -20 59 -15 97 15 109 54 145 139
129 83 -15 131 27 234 202 49 85 92 133 132 149 14 6 63 10 109 10 54 -1 97 4
125 14 69 26 198 64 217 64 15 0 19 -13 26 -77 4 -43 9 -82 10 -88 1 -5 2 -20
3 -32 2 -39 34 -62 81 -58 77 6 120 58 120 147 0 72 8 85 57 102 72 25 253
188 317 287 18 28 14 54 -11 63 -28 11 -197 -83 -327 -181 -58 -45 -108 -75
-122 -75 -33 0 -53 19 -48 46 7 39 50 147 88 219 50 96 41 110 -89 142 -38 9
-81 19 -95 21 -14 2 -34 6 -45 9 -11 2 -46 7 -78 10 -115 12 -150 42 -250 206
-76 127 -110 209 -127 306 -7 41 -19 78 -28 87 -47 42 -149 -84 -137 -169 30
-206 40 -228 145 -302 87 -61 103 -79 172 -192 64 -106 67 -141 18 -237 -55
-106 -113 -155 -203 -169 -39 -7 -148 17 -181 39 -13 8 -54 60 -91 115 -37 55
-74 102 -81 105 -8 3 -24 2 -36 -3 -50 -18 -137 40 -179 121 -36 70 -29 91 83
272 107 172 228 428 228 480 -1 35 -25 56 -79 66 -92 17 -130 48 -145 118 -12
51 55 171 148 268 33 34 103 121 145 181 42 59 141 240 141 256 0 3 16 40 35
82 42 90 97 147 191 196 81 41 127 87 150 148 33 88 41 97 229 249 139 113
146 120 162 152 21 44 19 67 -12 109 -34 46 -152 159 -234 223 -70 55 -78 83
-41 140 34 53 54 75 105 115 59 45 118 55 181 28z m4571 -287 c-16 -215 -120
-379 -331 -519 l-90 -59 -27 43 c-34 55 -109 120 -176 153 -29 15 -53 28 -53
30 0 8 95 66 190 116 238 126 329 181 410 252 41 36 77 66 79 66 2 0 1 -37 -2
-82z m-588 -509 c43 -26 68 -56 76 -92 9 -36 -29 -87 -94 -129 -62 -39 -101
-33 -158 28 -40 41 -49 64 -43 104 4 36 115 109 165 110 11 0 35 -9 54 -21z
m-335 -507 c-1 -90 -54 -168 -258 -379 -86 -90 -123 -107 -112 -52 12 63 80
216 125 284 84 128 206 233 236 204 6 -6 10 -31 9 -57z m-536 -408 c27 -19 28
-36 2 -59 -23 -21 -53 -15 -94 19 l-29 24 29 16 c37 20 64 20 92 0z m97 -226
c28 -14 59 -34 71 -45 19 -16 20 -21 8 -50 -21 -50 -43 -56 -111 -33 -32 11
-75 22 -97 25 -66 11 -155 115 -109 129 10 2 56 4 103 2 68 -2 95 -7 135 -28z
m-62 -238 c32 -16 37 -58 10 -82 -17 -15 -180 -58 -218 -58 -25 0 -105 61
-105 79 0 24 29 61 54 71 32 12 227 5 259 -10z m52 -181 l35 -31 -87 -66 c-49
-36 -97 -74 -107 -84 -42 -39 -79 -32 -89 18 -10 54 128 192 195 194 10 0 33
-14 53 -31z m-4485 -241 c-23 -66 -51 -135 -73 -178 -7 -13 -28 -35 -47 -48
l-35 -24 -3 22 c-4 24 169 322 176 302 2 -6 -6 -40 -18 -74z"/>
<path d="M2551 6390 c-39 -33 -35 -46 19 -55 22 -4 42 -10 45 -14 7 -12 -135
-202 -178 -241 -60 -52 -63 -65 -22 -90 32 -20 50 -22 204 -23 194 -2 208 3
246 80 47 97 89 107 178 42 102 -72 93 -34 -26 124 -32 43 -65 81 -72 83 -7 3
-27 -2 -44 -10 -30 -16 -32 -15 -168 49 -75 36 -140 69 -143 74 -3 5 -20 -4
-39 -19z"/>
<path d="M1901 5702 c-26 -49 -21 -70 41 -164 61 -93 82 -117 105 -118 23 0 2
173 -28 232 -32 63 -97 90 -118 50z"/>
<path d="M2336 5227 c-35 -35 -31 -55 48 -221 70 -147 62 -140 174 -162 74
-15 153 92 158 214 2 36 0 61 -4 56 -5 -5 -21 -26 -36 -47 -60 -82 -104 -72
-199 46 -32 40 -70 87 -86 106 l-28 35 -27 -27z"/>
<path d="M2335 4597 c-33 -18 -48 -38 -85 -110 -54 -106 -77 -123 -172 -130
-82 -5 -126 -29 -154 -84 -42 -82 -76 -134 -115 -176 -36 -37 -39 -46 -35 -81
4 -34 18 -55 36 -56 4 0 12 16 19 36 20 56 66 101 122 119 68 23 105 14 164
-39 27 -25 59 -50 71 -57 32 -17 69 -4 83 29 12 28 14 43 26 182 7 68 56 256
89 334 12 30 11 56 -2 56 -4 0 -25 -10 -47 -23z"/>
<path d="M1582 4188 c-23 -26 -37 -70 -29 -92 5 -12 11 -13 38 -3 42 16 56 47
39 87 -15 36 -20 37 -48 8z"/>
<path d="M2717 2923 c-12 -14 -16 -47 -18 -148 -4 -172 -6 -179 -80 -206 -73
-27 -85 -46 -93 -149 -16 -194 -18 -248 -8 -254 6 -3 49 8 96 25 71 26 92 39
121 75 40 48 76 63 152 62 56 -1 84 12 128 59 36 40 33 70 -7 78 -41 9 -139
80 -167 121 -29 42 -39 79 -47 182 -4 48 -8 96 -9 107 -1 11 -3 30 -4 43 -1
27 -40 31 -64 5z"/>
<path d="M1532 2553 c-7 -3 -40 -58 -72 -124 -33 -65 -69 -123 -80 -129 -17
-9 -28 -7 -55 10 -19 12 -35 26 -35 31 0 5 -11 9 -25 9 -29 0 -41 -21 -96
-165 l-38 -102 16 -54 c8 -30 22 -62 31 -72 22 -25 54 -17 71 18 33 71 81 101
178 110 32 3 68 11 80 17 26 13 43 56 43 109 0 21 14 91 31 155 34 132 38 172
18 185 -15 9 -46 11 -67 2z"/>
<path d="M1116 908 c-10 -38 -7 -116 5 -124 6 -3 17 0 25 8 11 10 13 29 8 76
-7 64 -26 84 -38 40z"/>
<path d="M4738 2125 c-2 -2 -34 -6 -73 -10 -250 -23 -301 -33 -392 -77 -133
-64 -134 -65 -148 -195 -3 -24 -7 -60 -9 -80 -6 -50 -12 -155 -33 -578 -11
-239 -9 -494 5 -542 15 -49 30 -66 104 -111 71 -43 157 -72 241 -83 38 -5 89
-12 115 -16 26 -4 74 -7 107 -7 132 0 380 33 466 63 66 22 163 95 199 149 29
45 30 48 31 181 1 75 2 165 4 201 4 83 26 775 27 845 2 89 -26 116 -197 190
-29 13 -62 22 -115 32 -13 2 -56 11 -95 20 -59 14 -228 26 -237 18z m86 -116
c43 1 84 -4 91 -9 14 -12 26 -15 97 -24 93 -13 168 -59 168 -105 0 -31 -16
-51 -41 -51 -9 0 -22 -7 -29 -15 -7 -8 -21 -13 -33 -11 -11 1 -61 -10 -111
-26 -62 -19 -101 -26 -121 -22 -53 12 -90 12 -102 2 -9 -7 -24 -6 -50 4 -25
10 -48 12 -66 7 -21 -6 -37 -2 -62 12 -24 15 -43 18 -68 14 -45 -9 -109 9
-147 42 -25 20 -30 32 -28 57 3 28 11 35 77 69 60 30 85 37 135 38 33 0 79 7
101 14 22 8 56 11 75 8 19 -3 71 -5 114 -4z m-513 -255 c126 -44 248 -65 410
-68 166 -4 285 11 477 60 51 13 94 24 97 24 2 0 2 -33 0 -72 -7 -107 -14 -251
-20 -443 -8 -247 -14 -378 -21 -480 l-6 -90 -44 -42 c-66 -63 -90 -76 -149
-79 -29 -1 -74 -5 -101 -9 -27 -4 -62 -9 -79 -11 -16 -2 -52 -6 -80 -9 -27 -3
-67 -8 -88 -10 -21 -3 -57 0 -80 6 -23 6 -73 15 -112 19 -38 5 -90 13 -115 18
-25 5 -68 13 -97 16 -73 8 -79 12 -100 64 -17 41 -19 65 -16 182 8 245 8 252
-17 295 -21 37 -22 48 -16 140 7 102 12 163 21 225 2 19 7 60 11 90 4 30 8 62
10 70 1 8 3 30 3 48 1 33 30 72 55 72 7 0 33 -7 57 -16z"/>
</g>
</svg>
