<svg id="Layer_1" xmlns="http://www.w3.org/2000/svg" viewBox="0 0 281.8 295.9">
  <style>
    .st0{fill:#FFFFFF;} .st1{fill:#F9F9F9;} .st2{fill:none;}
  </style>
  <path id="XMLID_24_" class="st0" d="M183.2 137.2c-4.1 2.5-8.7 3-13.3 3-2.3 0-4.6-.4-6.9-.6-2.2-.2-3.3.8-3 3.1l.9 8.1c.1.8 0 2.2-.2 3-1 4.4-2 8.8-1 13.5.4 1.7-.7 3.6-.8 5.5-.2 3.2-.1 6.4-.1 9.7 0 6.8-.8 13.4-4 19.5-2.6 5-2.6 10.7-3.7 16.1-1 4.8-2.5 9.4-3.1 14.2-.7 5.4-4.6 9.6-5.4 14.9-.4 2.9-1 5.7-1.3 8.6-.3 2.7 1.6 3.9 3.7 4.6 3.8 1.2 4.2 1.7 4.2 5.6 0 3.4-.3 6.8.3 10.1.4 2.4 2 4.5 3.5 7.6-2.1.3-4.1 1.1-5.5.6-5.7-2-11-.1-16.2 1.3-3.9 1.1-7.5.7-11-1-1.7-.8-3-.6-4.4.5-.9.7-1.9 1.3-2.9 1.8-2 .9-3.8.9-5.7-.7-2.4-2-5.3-3.6-7.6-5.7-2.5-2.3-2.5-5.7-2.1-8.7.4-2.8.2-5-1.8-7.3-1.2-1.4-1.7-3.8-1.8-5.7 0-4.3.1-8.7.8-12.9.6-4.1-.9-7.3-3.4-10-3.3-3.5-4.9-7.3-4.9-12.1 0-2.5-1.1-5.1-2.2-7.4-.4-.9-2.4-1.8-3.3-1.5-1.2.5-2.3 1.9-2.9 3.1-1.1 2.3-2 4.8-2.7 7.3-.5 1.8-.4 3.8-.9 5.6-1 3.9-2.4 7.8-3.1 11.8-1.1 6.2-1.8 12.4-2.6 18.7-.1.4 0 .8.1 1.2 2.4 6.5 1.1 13.2 1.1 19.7 0 2.9-.7 5.9-3.5 7.7-2.9 1.9-4.3 1.5-7.1-.8-.8-.7-2.5-.8-3.6-.5-1.6.4-2.9 1.8-4.5 2.2-1.1.3-2.8 0-3.6-.7-2.7-2.4-4.9-2.2-7.3.6-1.1 1.3-2.6 2.5-4.2 3.1-.9.4-3.1-.2-3.3-.8-1.4-3.9-4.6-2.4-7.2-3-4.5-1-7.1 1.3-9.7 4.5-1.7 2.2-4.2 1.5-5.4-1.2-1.6-3.6-3.6-7-2.8-11.3.8-4.2 3-7.1 6.5-9.4 1.1-.7 1.9-1.8 2.6-2.8 1.4-2.2 2.9-4.4 4-6.8.6-1.4 1.1-3.3.7-4.8-2.7-10.8-3.7-21.9-4.2-33-.1-1.7-.3-3.4-.9-5-2-6.2-3.2-12.5-3.1-19 0-1.1.1-2.3.2-3.4.3-5.3.4-10.7 1-16 .3-2.4 1.2-4.9 2.5-7.1 3.1-5.4 3.1-12.2-1.9-17.3-3.7-3.7-6.3-8.4-11.2-11-3-1.6-3.8-5.3-4.1-8.6-.5-6 1-11.1 4-16.5 4.5-8.2 8.9-16.4 10.6-26 1.2-6.6 4-12.6 10.1-16.9 3.7-2.6 6-7 9.1-10.4 4-4.5 8.1-8.8 12.1-13.3.6-.7 1.3-1.6 1.2-2.4-.4-5.3 2.7-8.4 6.4-11.3 3-2.4 5.9-5 8.6-7.7 1-1 1.7-2.5 2.2-3.9.9-2.5-1.3-5.3-3.9-5.1-2.4.2-3.8-.6-4.4-3.5-.2-1.1-.8-2.1-1.5-3-1.3-1.7.6-9.7 2.5-11 5.1-3.4 10.9-3.5 16.6-3 2.5.1 4.9 1.8 6.9 3.3 3.1 2.2 4.8 2.4 8.3.6 2.3-1.2 6.2-1.7 9.2-2.6 0 1.1-.4 1.9-1.9 2.3-4.7 1.4-5.7 4.3-4.2 8.9-3.9-.8-6.2 1.3-8.2 3.6-2.1 2.4-4.9 2.8-7.7 2.9-2.4.1-4.4-3.1-3.4-5.2.4-.9 1.9-1.7 3.1-1.9 1.7-.3 3.6 0 5.4-.2 1.1-.1 2.4-.9 1.1-2.2-2-2-4-3.8-6.1-5.4-4.7-3.7-9-3.3-13.3 1.3-1.1 1.2-2.2 2.4-3 3.7-1.3 2.1-.6 4.1 1.4 5.4 4.8 3.1 8.7 7.1 12.3 11.5 1.1 1.4 0 4.6-2 6.2-4.4 3.5-8.8 6.9-13 10.7-1.4 1.3-2.3 3.4-2.9 5.4-1.2 3.8-4.3 5.4-7.4 6.7-3.6 1.6-6.5 4.6-7.9 8.4C37 76 32.3 83.9 25.9 90.5c-2.8 2.9-5.2 5.9-6.6 9.5-1.2 3 1.3 7 4.5 7.6 1.5.2 3.1.3 4.3 1 .8.5 1.4 2.3 1.1 3.1-2 4.9-4 9.8-6.4 14.4-2.2 4.1-5.1 7.8-7.4 11.9-2 3.4-1.1 6.5 1.6 9.2 2 2 3.7 4.1 7 2.6.4-.2 1.3.3 1.6.7 1.8 2.5 3.3 5.1 5.1 7.6 1.9 2.6 5 2.9 7.7 3.5 1.6.3 3.6-.2 5.2-.8 1.4-.6 2.7-1.8 3.8-3 .8-.9 1.2-2.1 1.9-3.2 2.8-4.4 2.7-7.1-.4-11.4-1.7-2.3-3-5.2-5.1-6.8-2.6-1.9-5.7-3.1-7.2-6.1-.6-1.2-.9-2.6-1.1-3.9-.4-2.3-.7-4.7-1-7.2.2-.3.9-1.1 1.3-1.9.5-.8.6-2 1.2-2.5.9-.8 2.3-1.8 3.2-1.6.8.1 1.7 1.9 1.8 3 .4 7.8 4.9 13.7 8.8 20 3.6 5.7 8.9 3.9 13.6 5.2 2.7.8 5.6 1.2 8.3 2.2 2.3.8 1.7 2.9.5 4.8-2 3.2-3.3 6.8-4.4 10.4-.4 1.5 2.3 2.7 3.6 1.7 3-2.2 5.7-4.6 8.8-6.6 2.8-1.8 5.9-3.3 9-4.8.5-.2 1.5.1 1.8.5.3.4.4 1.5.1 1.9-1.5 2-3 4-4.7 5.7-2.1 2.1-4.5 4-6.8 5.9-.8.6-1.7 1.5-2.6 1.6-3.2.2-3.1 2.3-3.1 4.6.1 4.9-2.3 7.2-7 6.8-.9-.1-1.8-1-2-1.9-.5-3-.8-6.1-1.2-9.9-3.3.9-6.4 1.3-9.1 2.6-2.5 1.2-4.9 1.6-7.4 1-3.4-.7-6.9 1-8.5 4-1.9 3.5-4.1 7-6.6 10.2-1.4 1.8-3.5 3-6.2 1.9-2.8-1.1-4.5.5-5.3 2.9-.8 2.6-1.6 5.2.3 7.9.7 1 .8 3.4.2 4.3-2.2 3-1.2 5.8.1 8.5 1.5 3.1 3.4 5.9 4.7 9 .5 1 .4 2.9-.3 3.7-4.2 5.5-4.4 6.5-.8 12.6 1.5 2.6 2.3 5.3 2.4 8.4.2 4.3 1 8.7 1.1 13 .1 4.6-.1 9-3.6 12.8-3.9 4.3-7.2 9.2-10.5 14-.5.8.1 3 .9 3.8 1.6 1.7 5.4.6 6.7-1.4 1.7-2.5 3.7-4.9 6.1-7.9.8 1.6 1.7 2.9 2.2 4.3 1.1 3.6 4.3 5.8 7.8 4.8.6-.2 1.1-1.2 1.4-1.9.7-1.5 1.1-3.2 1.9-4.7.3-.5 1.1-1.1 1.7-1 .6.1 1.2.7 1.5 1.3.4.6.3 1.5.6 2.2.6 1.1 1.5 3 2 2.9 1.6-.2 3.4-.9 4.6-2.1 1.5-1.5 1.9-4.2 3.6-5.7 1.2-1 2.8-.7 3.9.4.6.6 2.3 1.1 3 .7 1.1-.6 2.3-1.8 2.7-3 .4-1-.2-2.4-.3-3.2-7-2-13.7-4.5-20.8-.9-1.9-3-3.5-5.9-1.7-9.5.3-.6.8-1.3 1.4-1.7 1.4-.9 2.8-2 4.4-2.5 4.9-1.5 8.6-4.7 11.8-8.5 1.5-1.8 2.6-3.9 3.7-6 .9-1.7 1-3.7 0-5.4-3.9-6.9-1.6-15.7 5.1-19.9 1.9-1.2 2.9-2.7 3.4-4.8.7-2.9 1.7-5.7 2.7-8.6.8-2.2 2.7-3.7 5-4.3 1.4-.3 2.6-1.5 3.9-2.2.8-.4 1.9-.7 2.6-.4.6.3 1 1.5 1 2.3.1 2.7-.1 5.4 0 8.2.2 4 .6 7.9 3.8 10.9.9.8 1.8 2.3 1.7 3.4-.6 6.2 2.5 11.2 5.3 16.1 2 3.4 1.5 6.9 1.6 10.4.2 4.9 3.8 7.5 8.5 6.3 3.8-1 7.4-3.2 11.5-1.9 1.9.6 3.7 1.8 5.5 2.7v1c-5.6 3.1-11.1 6.3-16.7 9.3-1.8 1-3.8 1.5-5.7 2.5-3.1 1.6-3.4 5.4-.7 7.5 2.3 1.8 5.5 1.7 8 0 .9-.6 2.5-.7 3.6-.3 1.7.5 3.2 1.5 4.7 2.4 2.6 1.6 5.6 1.1 7.4-1.3.5-.6 1.5-1 2.2-1 3.9 0 7.7.3 11.6.3 2.7 0 4.7-1.5 5.3-4.4.5-2.2-1-3.5-2.8-4.2-3-1.2-6.1-2.4-9.2-3.1-2.3-.6-2.6-1.4-2.1-3.7 1.3-6.2 3.6-12.2 3.1-18.7-.1-1.2.7-2.6 1.3-3.8 1.4-2.6 3.2-5 4.4-7.8.6-1.3.1-3 .1-4.8-2 .4-3.4.9-4.8.9-1.1 0-2.3-.6-3.4-1 .2-.8.4-2.1.8-2.2 2.3-.5 4.6-.6 7.1-.9-.1-5.4 2.1-9.8 6.1-13.4.5-.5 1-1.6.8-2.2-1.3-3.6.3-7 .7-10.5.2-1.8 0-3.7 0-5.6v-.1c1.2-4.3 2.4-8.6 3.5-13 .3-1.1.1-2.4.1-3.6 0-5.5-.4-11-.1-16.4.4-6 1.5-11.9 2.3-17.9.3-2.1-.3-3.6-2-5.2-4-3.8-7.8-8.6-5.4-14.2 2.8-6.4-1.4-11.8-1.2-17.8 0-.5-2.3-1.7-2.8-1.4-1.9 1.1-4.4 2.3-5.2 4.2-1.1 2.5-1 5.7-1.4 8.5-.1.6 0 1.6-.4 1.9-2.8 1.9-5.1 5-8.9 5.2-.4 0-1.1 0-1.3-.3-1.7-2.9-4.4-2-6.8-1.6-3.6.6-5.4-.5-5.9-3.8-.3-2.3.4-4.2 2.7-5 2.1-.8 4.3-1.6 6.5-1.8 4.9-.3 7.6-3 10.1-7 2-3.1 5.2-5.6 8.2-7.8 2.1-1.5 4 .4 3.7 3.9l2.6-.4c.3-1.2.5-2.3.8-3.3.6-2 2.2-2.4 3.5-1.4 2 1.6 4.2 3.5 5.2 5.7.9 2.1.5 4.9.2 7.4-.6 6.1 1.3 11.5 3.8 16.8.1.3.2.6.4.7 3.2 1.9 6.3 3.9 9.5 5.8.4.2.9.3 1.3.6 4.6 3.2 9.6 3.3 14.2 0 1.2-.8 2.3-1.6 3.4-2.5 3.1-2.5 3.4-4.6 1.4-8-.5-.9-.9-2.6-.5-3.4 2.6-4.4 2.9-9 2-13.9-.2-1 .4-2.3.9-3.2 1.7-2.8 1-4.9-1.7-7-1.9 1.1-3.9 2.2-5.9 3.5-3.9 2.6-4 3.8-2.9 8.4.7 3.1 1.4 6.4-.6 9.6-1.1 1.7-2.2 2.6-4 2.2-2.1-.5-3-1.9-3.3-4.1-.4-3.4-.9-6.8-1.5-10.2-.2-1-1.2-1.7-1.7-2.7l-2.7-5.1c-.5-.9-1-1.9-1.6-2.8-1.4-2.2-2.8-4.3-4.1-6.5-2.6-4.2-4.6-8.8-10.5-9.6-1.1-.1-2.2-1.7-3-2.8-1.1-1.5-1.8-3.3-2.7-4.9-1.1-1.9-2.7-1.6-4.6-1.3-5.5.9-4.3 5.4-5.2 8.9-.8 3.4-1.5 6.8-2.4 10.1-.4 1.6-2.6 2.1-3.8 1.1-1-.9-2.1-1.8-3.4-2.3-3.7-1.5-4-3.8-.9-6.6 1.1-1 2.4-2.3 2.9-3.6.7-1.8-1.5-5.3-3.4-6.2-3.8-1.8-8-3.1-10.2-8.4 2.4 1 4.1 1.9 5.9 2.5 2.4.8 4.9 1.5 7.4 1.9.5.1 2-1.7 1.9-2.2-.5-1.5-1.2-3.3-2.5-3.9-3-1.5-6.3-2.1-9.4-3.5-2.5-1.2-4.2-.1-6 1.3-.3.2-.3.7-.6.9-.7.6-1.4 1.2-2.1 1.7-.4-.3-.4-.3-.9-.5.3-1.2.4-2.4.8-3.5.9-2.1 1.9-4.2 3.1-6.2.6-1.1 1.6-2.1 2.4-3.1.8.8 2.4 1.6 2.3 2.4-.1 2.4 1.3 3.8 2.9 4.4 3.2 1.3 6.6 2.8 9.9 2.8 2.3 0 4.6-2.4 6.6-4.1.3-.2-.7-3.2-1.6-3.5-2.8-1.1-3.7-2.7-3.5-5.7.2-3.8-.5-7.7-.5-11.5 0-1.4.6-3 1.4-4.2 2.3-3.6.4-8.6-3.9-9.5-4.7-1-8.9-3.5-13.4-7 3.6-1.4 6.9-2.7 9.8-3.8 1.7-.7 3.6-1 5.3-1.7 2.9-1.4 5.6-.4 8.1.8 4.3 2 5 5.3 2.5 11.1-1.6 3.6-1.9 7-.5 10.6.7 1.7 1.5 3.4 1.8 5.2.5 3 2.5 4.6 4.7 6.3 1 .8 2 2.3 2 3.5 0 1-1.3 2.3-2.3 3-1.3.9-2.9 1.3-4.4 1.8-1.5.5-1.5 1.4-.5 2.2 2.6 2.2 3.5 5 3.6 8.3.1 2.9 1.7 5.4 4.1 6.9 2 1.3 3.9 3 5.3 5 4 5.7 7.7 11.7 13.4 15.7 5.6 3.9 12 5.6 18.7 1.8 7.1-4 14.9-5.7 22.9-6.3 2.4-.2 4.2-1.1 5.7-3.1 3.7-5 7.6-10 11.4-15 3-3.9 6.3-7.6 8.8-11.9 1.7-3 2.2-6.7 3.5-9.9.9-2.1 2-4.4 3.7-5.6 2.8-2 6.1-3.3 9.2-4.9 2.2-1.2 4.3-2.6 6.5-3.8 5.6-3.1 11.6-5.6 16.3-10.2 1.9-1.9 3.8-3.8 5.7-5.8l1 .4v6c-.2 6.7.6 13.6-2.9 19.7-2.4 4.2-5.8 7.9-8.8 11.7-2.2 2.7-4.4 5.6-7 7.9-2.3 1.9-5.1 3.5-7.9 4.4-3.2 1.1-5.7 2.6-7.2 5.5-2.6 5.1-6.9 8.7-10.5 12.8-2.1 2.4-3.6 5.5-5.2 8.3-.2.5.6 1.9 1.4 2.4 1.1.9 2.4 1.5 3.7 2 2.9 1.1 3.2 3.4 3.1 5.9 0 2.7-2.4 3.9-4.1 3.8-5.3-.2-7.5 3.2-8.8 7.3-1.9 5.9-6.5 9.2-11.3 12.5l-9.3 6.3c-.4.3-.9.5-1.1.9-4.1 7.2-10 13.1-14.6 19.9-1.5 2.3-4 4-6.3 5.5-1.1.7-3 .3-4.4-.2-.5-.2-.8-2.1-.5-3.1.7-2.3 1.8-4.5 2.7-6.8.3-.7.6-1.3.9-2 .1-.1.2-.1-.1-.3zm95.1-122c-3 2.5-5.5 5.3-8.7 7.2-6 3.6-12.3 6.7-18.4 10.1-1.2.7-2.3 1.6-3.9 2.8 5.2 1.5 10.1 5.9 11.7 9.9 14.2-7.7 19.5-16.7 19.3-30zm-58.7 70c.3.2.6.3.9.5.4-.1 1-.1 1.3-.4 4.1-4.4 8.4-8.6 12.2-13.2 1.5-1.9 2.3-4.5 2.9-6.9.3-1-.5-2.3-.8-3.4-1.2.5-2.6.7-3.5 1.4-5.3 4.5-9 10-11.3 16.6-.6 1.7-1.1 3.6-1.7 5.4zm29.6-44c-2.5-.1-7.6 3.5-7.6 5.4-.1 2.9 3.4 6.6 6.3 6.6 2.4.1 7.2-3.9 7.4-6.1.2-2.6-3-5.8-6.1-5.9zm-44.5 69.2c3.4-.8 6.2-1.3 9-2.1 1.8-.5 2.2-2.2 1.7-3.6-.3-.7-1.8-1-2.7-1.4-.5-.2-1.1-.1-1.6-.1-2.5 0-5-.3-7.5-.1-2.4.2-4.3 3.3-3 4.5 1.2 1.3 2.9 2.1 4.1 2.8zm16.4-14.2c-4.9-4.8-11-5.2-15.8-3.6.7 3.1 3.6 5.4 7 5.6.9.1 2 .2 2.8.6 3.7 1.8 4.7 1.4 6-2.6zm-2.9 17.3c-1.5-1.2-2.5-2.6-3.6-2.7-3-.3-9 5.2-9.4 8.3-.1.7.4 1.6.9 2.2.3.3 1.3.3 1.7 0 3.4-2.5 6.7-5 10.4-7.8zm-201.8 6.1c-.4-.2-.3-.1-.7-.3-2.5 4.1-5 8.1-7.4 12.2-.3.7-.2 1.5-.4 2.5 3.9-1.2 3.9-1.2 8.5-14.4zm197.2-34.5v-1.3c-1-.5-2-1.5-3-1.5-1.2.1-2.3 1-3.4 1.6 1.3 1 2.5 2.2 4 2.8.5.2 1.6-1 2.4-1.6z"/>
  <path id="XMLID_45_" class="st0" d="M221 214.7c-3.6-1.7-7.2-3.2-11.2-3.6-3-.3-5.9-1.8-8.8-1.7-6 .2-11.9 1.3-17.9 1.7-4.6.3-8.3 2.8-12.1 4.9-.7.4-1.3 1.5-1.4 2.4-.5 3.3-.9 6.6-1.2 10-.3 3.4-.4 6.8-.5 10.2-.4 9.5-.8 18.9-1.3 28.4h.3c-.1 1.6-.6 3.2-.3 4.8.4 2.5.5 6 2.2 7.3 4.8 3.7 10.3 6.1 16.7 6.1 2.3 0 4.6 1 6.9 1 3.8-.1 7.7-.6 11.5-1.1 4.9-.7 10-.9 14.1-4 2.2-1.6 4.5-3.6 5.7-6 1-2 .2-4.7.3-7.1.2-5.5.5-11 .6-16.5.3-8.2.5-16.4.7-24.6 0-1.3-.1-2.6.1-3.8.7-4.1-.7-6.7-4.4-8.4zm-23.8 11.4c-.5.4-1.4 1.2-2.2.6-1.1-.9-2.2-1.3-3.4-.6-.9.5-2.1.2-2.9-.6-.8-.8-2.1-1-3-.6-2.1.9-3.5-.4-5-.7-.9-.1-1.8-.9-2.7-1.9-1-1.2-.7-3 .7-3.7 3.1-1.6 6-3.4 8.4-2.9 3.7.7 5.7-1.7 8.8-1.4.1.1.2.1.2.2 0 .6 1 .9 1.6.9 2.4-.2 6.3-.9 6.4-.3-.2.2.2.7 1 .9 1.3 0 1 .2 2.4.3 3.2.2 6.3 1.1 8.5 3.3.4.4.4 1.3.3 2.3-.1.7-.2 1-.9 1.3-.2.1-.3.1-.4.1-.7-.1-1.4.3-1.8.7-.7.7-.5 1-2.1.4-.4-.1-1 .3-1.5.4-3.2.6-6.1 3.1-9.7 1.6m20.5 23c.1 5.5-.2 11-.5 16.5-.1 2.1-.4 4.3-.6 6.3v1.4c0 .4-.2.9-1.1 1.6-2.3 1.9-4.1 4.7-7.6 4.5-.6 0-1.1-.2-1.7-.1-5.1.7-10.2 1.6-15.3 2-1.8.1-3.7-1-5.6-1.4-1.2-.2-2.5.1-3.7 0-.6 0-1.3-.2-1.8-.5-.3-.2-.6-.3-.9-.3l-7-.8c-.8-.1-1.4-.5-1.8-1.2-.8-1.4-1.6-2.6-1.4-3.7.6-3.6-.8-7.2.2-10.9.7-2.5.7-6.1-.6-8-2.1-3-.9-5.7-.8-8.4.3-5.6 1.2-11.1 1.9-16.7.1-.7.2-1.4.2-2.1.2-1.6 1.7-2.5 3.2-2 15.5 5.9 30.6 4.3 45.9-.2"/>
  <path id="XMLID_22_" class="st1" d="M203.5 277.7c.2-.1.5-.1.7-.2"/>
  <path id="XMLID_19_" class="st0" d="M96.8 208.3c-.1-.9-.4-2.1-.3-3.4.2-3.3.6-6.5.8-9.8.2-3.5 1-4.9 4.4-5.4 2.2-.3 2.9-1.6 3-3.4.2-3.4.4-6.7.3-10.1-.1-2.3.8-3.2 3.5-3.3.3 2.8.8 5.6.8 8.4 0 4.1.7 7.7 4.6 10.2 1.6 1 2.4 2.7 4.8 2.8 2.1.1 2.4 1.7.8 3.3-1.8 1.9-3.5 3.5-6.8 2.9-2.2-.4-5.2.4-6.5 3.4-.3.6-1.1 1.2-1.8 1.4-2.3 1.1-4.7 1.9-7.6 3z"/>
  <path id="XMLID_18_" class="st0" d="M97 19.4c1-.9 2.1-1.8 3.1-2.7-.1.3-.1.5-.2.8 1.9 1 3.8 2 5.7 2.9 1.1.5 2.3.9 3.3 1.4 1.9.9 3.6 2.9 5.9.6.2-.2 1.5.1 1.9.5 1.9 2.3 3.6 4.7 5.3 7.1.7.9 1.2 2 1.8 3-.2.2-.4.5-.6.7-.9-.6-1.9-1-2.7-1.8-3.2-3.1-6.3-2.7-7.9 1.4-1.1 3.1-2.9 4.2-6.1 4-3.9-.2-7.8-.1-11.7-.1-.5 0-1 0-1.4-.2-1-.6-2-1.2-3-1.9.9-1 1.7-2 2.6-2.9.5-.5 1.2-.9 1.7-1.5 2.3-3 4.5-6.1 6.8-9.3-1.4-.3-2.9-.7-4.4-1.1 0-.2-.1-.6-.1-.9z"/>
  <path id="XMLID_17_" class="st0" d="M91.4 98.6c-1.3 4-3 8-4 12.1-.8 3.6-.6 7.5-1.2 11.2-.2 1.2-1.1 2.9-2.1 3.2-1 .3-2.6-.6-3.7-1.3-1.3-.9-2.1-2.5-3.4-3.3-3.5-2.2-9.8.6-10.8 4.6-.2.9-.7 1.7-1 2.6-2-1.4-2.6-3.9-1.4-5.4.7-.8 1.8-1.5 2.4-2.4 1.4-2 3-4 3.7-6.3.8-2.7 4.3-4.7 7.1-4.3 1.8.3 4.5-.4 5.7-1.7 1.8-2.1 2.4-5.3 4.1-7.7.8-1.2 2.7-1.6 4.1-2.4.1.4.3.7.5 1.1z"/>
  <path id="XMLID_16_" class="st0" d="M34.7 211.4c1.2-3.1 2.4-6.7 3.9-10.2 1.1-2.4 2.3-2.3 4-.3 1.5 1.8 3.2 1.8 4.3-.1 1.5-2.6 2.9-5.3 4.1-8.1.8-1.8 1.7-2.8 3.7-2.4 2.2.5 1.5 2.3 1.3 3.4-.7 3.3-1.7 6.5-2.5 9.8-.3 1.3-.1 2.6-.2 3.9-.2 2.7-1.5 3.9-4.1 4-4.2.1-8.1.7-9.6 5.6-.5 1.5-2.8 1.4-3.5-.1-.6-1.5-.8-3.2-1.4-5.5z"/>
  <path id="XMLID_15_" class="st0" d="M90 69.4c2.5 3 4.8 5.6 6.9 8.4 2.5 3.3 5.3 3.2 7.3-.5.4-.7.8-1.3 1.3-2.2 1.7 4.3-1.8 12-5.7 12.7-1.3.2-2.8-.8-4.2-.9-1.8-.1-2.3-1.2-2.9-2.7-1.3-3.2-3.1-6.2-4.5-9.4-.9-2.1-1.1-4.3 1.8-5.4z"/>
  <path id="XMLID_14_" class="st0" d="M116 6c-.7 2-1.1 4-2.1 5.6-.5.8-3.1 1.4-3.4 1-3.3-4-8.8-4.8-13.5-5.6 0-.3.6-1.5.5-1.7 3-1.1 6.1-1.8 9.1-1.9 3.1-.1 6.1 1.6 9.4 2.6z"/>
  <path id="XMLID_13_" class="st0" d="M76.1 62.1c-1.1-.7-2-.9-2.4-1.5-1.7-2.4-3.3-5-4.9-7.5-.3-.5-.7-1.3-.5-1.8.4-1.2.9-3.1 1.6-3.2 1.1-.1 2.7.6 3.5 1.6 2.9 3.4 2.6 7.7 2.7 12.4z"/>
  <path id="XMLID_12_" class="st0" d="M53.6 121.9c-.6-2.8.4-4.6 2.6-5.9 2.3 3.2 1.5 5.1-2.6 5.9z"/>
  <path id="XMLID_11_" class="st1" d="M35.3 263.2c.2 1.8.6 3.6.7 5.4 0 .6-.7 1.1-1.1 1.7-.4-.5-1.3-1-1.3-1.5.1-1.9.4-3.8.6-5.7.3.1.7.1 1.1.1z"/>
  <path id="XMLID_10_" class="st2" d="M278.2 15.2c.3 13.2-5.1 22.3-19.3 29.9-1.6-4-6.4-8.4-11.7-9.9 1.6-1.1 2.6-2.1 3.9-2.8 6.1-3.4 12.4-6.4 18.4-10.1 3.2-1.8 5.7-4.5 8.7-7.1z"/>
  <path id="XMLID_9_" class="st2" d="M219.5 85.2c.6-1.8 1-3.6 1.7-5.4 2.3-6.5 6.1-12.1 11.3-16.6.9-.8 2.3-1 3.5-1.4.3 1.1 1.1 2.4.8 3.4-.7 2.4-1.4 5-2.9 6.9-3.8 4.6-8.1 8.9-12.2 13.2-.3.3-.8.3-1.3.4-.2-.2-.6-.4-.9-.5z"/>
  <path id="XMLID_8_" class="st2" d="M249.1 41.2c3.1.2 6.3 3.3 6.1 6-.2 2.2-5 6.2-7.4 6.1-2.8-.1-6.3-3.8-6.3-6.6 0-2.1 5.1-5.7 7.6-5.5z"/>
  <path id="XMLID_7_" class="st2" d="M204.6 110.4c-1.2-.8-2.9-1.5-4.2-2.7-1.3-1.2.6-4.3 3-4.5 2.5-.2 5 0 7.5.1.5 0 1.1-.1 1.6.1 1 .4 2.5.7 2.7 1.4.6 1.4.1 3.1-1.7 3.6-2.7.7-5.5 1.3-8.9 2z"/>
  <path id="XMLID_6_" class="st2" d="M221 96.2c-1.3 4-2.3 4.4-6 2.6-.8-.4-1.9-.6-2.8-.6-3.4-.2-6.3-2.5-7-5.6 4.8-1.6 10.9-1.2 15.8 3.6z"/>
  <path id="XMLID_5_" class="st2" d="M218.1 113.5c-3.7 2.8-7 5.3-10.3 7.8-.4.3-1.5.3-1.7 0-.5-.6-.9-1.5-.9-2.2.3-3.1 6.3-8.6 9.4-8.3 1.1.1 2.1 1.5 3.5 2.7z"/>
  <path id="XMLID_4_" class="st2" d="M213.5 85.1c-.8.6-1.9 1.8-2.4 1.6-1.5-.7-2.7-1.9-4-2.8 1.1-.6 2.2-1.5 3.4-1.6 1 0 2 .9 3 1.5v1.3z"/>
</svg>
